#!OML:ASF H:\Terrain\Patient Classification 1\Walking\liu\liu.ASF
:FULLY-SPECIFIED
:DEGREES
78
root 9.22826 16.2986 -21.2316 6.74734 -8.75154 -0.197363
lowerback -7.28072 2.18359 -2.67644
upperback -1.51081 3.06516 1.51846
thorax 2.29098 1.51078 3.34578
lowerneck -21.539 -5.47187 -13.4815
upperneck 20.1025 -6.71699 13.9764
head 11.031 -2.48268 6.32991
rclavicle -4.27573e-014 -1.59028e-015
rhumerus -40.0818 13.8188 -89.5245
rradius 33.3766
rwrist -15.794
rhand -29.2301 -25.3483
rfingers 7.12502
rthumb -2.5739 -55.3125
lclavicle -4.27573e-014 -1.59028e-015
lhumerus -42.9331 -6.33082 92.0665
lradius 23.0589
lwrist -0.143364
lhand -15.2215 -28.1389
lfingers 7.12502
lthumb 10.9511 1.55548
rfemur 8.59453 0.269962 17.7915
rtibia 30.6929
rfoot 10.6358 7.37107
rtoes -13.8082
lfemur -34.5392 10.0619 -24.3699
ltibia 32.5064
lfoot -6.09374 7.82446
ltoes 1.7833
79
root 9.25672 16.3174 -21.0971 6.52318 -8.77322 0.174522
lowerback -6.94882 2.10711 -2.96431
upperback -1.6087 2.97787 1.46566
thorax 1.99973 1.47344 3.42658
lowerneck -21.4043 -5.36734 -13.4917
upperneck 20.113 -6.57251 13.9363
head 10.9838 -2.42711 6.34056
rclavicle -6.35334e-015 -2.78299e-015
rhumerus -40.5427 13.6049 -89.4029
rradius 33.0479
rwrist -15.4935
rhand -29.8089 -26.7531
rfingers 7.12502
rthumb -3.13293 -56.7098
lclavicle -6.35334e-015 -2.78299e-015
lhumerus -42.652 -6.44426 91.9442
lradius 23.0102
lwrist -0.404451
lhand -9.06226 -23.9174
lfingers 7.12502
lthumb 16.8865 5.36845
rfemur 7.2836 -0.112089 17.1695
rtibia 33.8876
rfoot 11.3279 6.87368
rtoes -12.8568
lfemur -33.5362 9.89282 -24.7829
ltibia 32.0619
lfoot -6.54332 7.87008
ltoes 2.23358
80
root 9.28423 16.3305 -20.9573 6.30595 -8.50632 0.532583
lowerback -6.79976 1.86564 -3.24691
upperback -1.59817 2.67389 1.40769
thorax 1.94148 1.3218 3.49561
lowerneck -21.4751 -5.1614 -12.9439
upperneck 20.2368 -6.31798 13.3651
head 10.9571 -2.33018 6.07074
rclavicle 1.48503e-014 -6.75868e-015
rhumerus -40.7468 13.4837 -89.3617
rradius 32.587
rwrist -15.0506
rhand -30.2123 -27.7375
rfingers 7.12502
rthumb -3.52243 -57.6881
lclavicle 1.48503e-014 -6.75868e-015
lhumerus -42.2289 -6.10576 91.5213
lradius 22.9811
lwrist -0.954229
lhand -2.6557 -19.5898
lfingers 7.12502
lthumb 23.0444 9.05247
rfemur 6.11693 -0.56418 16.7093
rtibia 36.8494
rfoot 11.9564 5.82587
rtoes -11.9716
lfemur -32.6527 9.76902 -25.2295
ltibia 31.7754
lfoot -6.94764 7.59447
ltoes 2.43935
81
root 9.30925 16.3584 -20.8213 6.17779 -8.3798 0.674825
lowerback -6.66629 1.64988 -3.43257
upperback -1.58058 2.39399 1.48044
thorax 1.89764 1.18221 3.64943
lowerneck -21.9756 -4.98211 -12.6751
upperneck 20.7779 -6.06632 13.0646
head 11.1907 -2.2128 5.97433
rclavicle 1.74408e-014 1.23246e-014
rhumerus -40.8747 13.5682 -89.2834
rradius 32.1412
rwrist -14.6928
rhand -30.4627 -27.7927
rfingers 7.12502
rthumb -3.76427 -57.7392
lclavicle 1.74408e-014 1.23246e-014
lhumerus -41.7313 -5.67276 91.1668
lradius 23.0826
lwrist -1.41358
lhand -0.523127 -17.8376
lfingers 7.12502
lthumb 25.0892 10.5342
rfemur 4.82187 -0.867654 16.5107
rtibia 39.6465
rfoot 12.6677 4.91577
rtoes -11.6093
lfemur -31.8522 9.75953 -25.4359
ltibia 31.5509
lfoot -7.38123 7.3661
ltoes 2.4003
82
root 9.33106 16.3872 -20.691 6.00585 -8.61622 0.607998
lowerback -6.39794 1.6894 -3.33099
upperback -1.53514 2.43171 1.50405
thorax 1.79513 1.20302 3.6099
lowerneck -22.2023 -4.96147 -12.6958
upperneck 20.9698 -6.06595 13.2309
head 11.3129 -2.1877 6.05274
rclavicle -9.15924e-015 -2.22639e-014
rhumerus -41.0121 13.286 -89.167
rradius 31.8197
rwrist -14.3129
rhand -30.6126 -27.2239
rfingers 7.12502
rthumb -3.90908 -57.1678
lclavicle -9.15924e-015 -2.22639e-014
lhumerus -41.2312 -6.00798 91.042
lradius 23.3332
lwrist -1.08193
lhand -0.673344 -17.6191
lfingers 7.12502
lthumb 24.9453 10.7727
rfemur 3.54716 -0.821732 16.5068
rtibia 42.3734
rfoot 13.3143 4.23113
rtoes -10.6266
lfemur -30.9632 10.0005 -25.3982
ltibia 31.3089
lfoot -7.8523 7.25983
ltoes 2.06648
83
root 9.35597 16.408 -20.5571 5.77138 -8.89624 0.903601
lowerback -6.23811 1.72987 -3.47113
upperback -1.45774 2.4931 1.38747
thorax 1.77986 1.23232 3.56782
lowerneck -21.8524 -4.92831 -12.8944
upperneck 20.6348 -6.04075 13.5331
head 11.1367 -2.16851 6.19339
rclavicle 1.50739e-014 1.78906e-014
rhumerus -41.2695 13.076 -89.1004
rradius 31.613
rwrist -14.0216
rhand -30.8049 -25.9007
rfingers 7.12502
rthumb -4.09477 -55.8411
lclavicle 1.50739e-014 1.78906e-014
lhumerus -40.701 -6.27812 90.779
lradius 23.4523
lwrist -1.22157
lhand -0.890807 -17.7878
lfingers 7.12502
lthumb 24.7369 10.6328
rfemur 2.27693 -0.841047 16.0485
rtibia 45.0122
rfoot 13.9245 3.63817
rtoes -10.0998
lfemur -30.0448 10.261 -25.793
ltibia 31.0395
lfoot -8.16121 7.22879
ltoes 1.36279
84
root 9.37999 16.4295 -20.4223 5.6901 -9.06168 1.39984
lowerback -6.38966 1.6475 -3.91975
upperback -1.39896 2.41948 1.3418
thorax 1.9143 1.18968 3.77547
lowerneck -21.6015 -4.87386 -13.2286
upperneck 20.5067 -5.91105 13.7006
head 11.0382 -2.12578 6.33189
rclavicle 1.4019e-014 -1.19271e-015
rhumerus -41.5329 13.2386 -88.8922
rradius 31.6283
rwrist -14.0748
rhand -30.7681 -25.1832
rfingers 7.12502
rthumb -4.05923 -55.1243
lclavicle 1.4019e-014 -1.19271e-015
lhumerus -40.053 -6.35104 90.6404
lradius 23.2225
lwrist -1.8584
lhand -1.15728 -18.3419
lfingers 7.12502
lthumb 24.4814 10.1135
rfemur 0.770777 -0.932525 15.4316
rtibia 47.5331
rfoot 14.78 2.76465
rtoes -9.26741
lfemur -29.2746 10.4245 -26.4504
ltibia 30.7363
lfoot -8.56211 7.18951
ltoes 0.983354
85
root 9.39898 16.4497 -20.2968 5.66193 -9.23713 1.55654
lowerback -6.43598 1.64506 -4.09168
upperback -1.39065 2.42856 1.38265
thorax 1.93868 1.19273 3.91745
lowerneck -21.6229 -4.88867 -13.2866
upperneck 20.6931 -5.88778 13.5495
head 11.1031 -2.13728 6.29544
rclavicle -3.04094e-014 -1.47101e-014
rhumerus -41.7549 13.2103 -88.673
rradius 31.7671
rwrist -14.1839
rhand -30.0979 -25.4572
rfingers 7.12502
rthumb -3.41196 -55.4096
lclavicle -3.04094e-014 -1.47101e-014
lhumerus -39.3875 -6.56013 90.5615
lradius 23.0183
lwrist -2.19062
lhand -1.1952 -18.5588
lfingers 7.12502
lthumb 24.4451 9.90146
rfemur -0.721498 -0.983815 15.2918
rtibia 49.9452
rfoot 15.4223 1.48576
rtoes -9.13703
lfemur -28.5177 10.6355 -26.713
ltibia 30.3278
lfoot -9.17368 7.17886
ltoes 1.30865
